TITLE ""
FILE "P1Q_j_1763-1776.mp3" MP3
  TRACK 01 AUDIO
    TITLE "P1Q_j_1763-1776_01"
    INDEX 01 00:00:00
  TRACK 02 AUDIO
    TITLE "P1Q_j_1763-1776_02"
    INDEX 01 00:00:12
  TRACK 03 AUDIO
    TITLE "P1Q_j_1763-1776_03"
    INDEX 01 00:01:43
  TRACK 04 AUDIO
    TITLE "P1Q_j_1763-1776_04"
    INDEX 01 00:01:63
  TRACK 05 AUDIO
    TITLE "P1Q_j_1763-1776_05"
    INDEX 01 00:06:54
  TRACK 06 AUDIO
    TITLE "P1Q_j_1763-1776_06"
    INDEX 01 00:06:72
  TRACK 07 AUDIO
    TITLE "P1Q_j_1763-1776_07"
    INDEX 01 00:11:73
  TRACK 08 AUDIO
    TITLE "P1Q_j_1763-1776_08"
    INDEX 01 00:12:41
  TRACK 09 AUDIO
    TITLE "P1Q_j_1763-1776_09"
    INDEX 01 00:14:16
  TRACK 10 AUDIO
    TITLE "P1Q_j_1763-1776_10"
    INDEX 01 00:14:36
  TRACK 11 AUDIO
    TITLE "P1Q_j_1763-1776_11"
    INDEX 01 00:18:38
  TRACK 12 AUDIO
    TITLE "P1Q_j_1763-1776_12"
    INDEX 01 00:18:57
  TRACK 13 AUDIO
    TITLE "P1Q_j_1763-1776_13"
    INDEX 01 00:22:08
  TRACK 14 AUDIO
    TITLE "P1Q_j_1763-1776_14"
    INDEX 01 00:22:53
  TRACK 15 AUDIO
    TITLE "P1Q_j_1763-1776_15"
    INDEX 01 00:24:46
  TRACK 16 AUDIO
    TITLE "P1Q_j_1763-1776_16"
    INDEX 01 00:24:66
  TRACK 17 AUDIO
    TITLE "P1Q_j_1763-1776_17"
    INDEX 01 00:29:12
  TRACK 18 AUDIO
    TITLE "P1Q_j_1763-1776_18"
    INDEX 01 00:29:34
  TRACK 19 AUDIO
    TITLE "P1Q_j_1763-1776_19"
    INDEX 01 00:33:53
  TRACK 20 AUDIO
    TITLE "P1Q_j_1763-1776_20"
    INDEX 01 00:34:21
  TRACK 21 AUDIO
    TITLE "P1Q_j_1763-1776_21"
    INDEX 01 00:35:65
  TRACK 22 AUDIO
    TITLE "P1Q_j_1763-1776_22"
    INDEX 01 00:36:10
  TRACK 23 AUDIO
    TITLE "P1Q_j_1763-1776_23"
    INDEX 01 00:38:32
  TRACK 24 AUDIO
    TITLE "P1Q_j_1763-1776_24"
    INDEX 01 00:38:54
  TRACK 25 AUDIO
    TITLE "P1Q_j_1763-1776_25"
    INDEX 01 00:44:12
  TRACK 26 AUDIO
    TITLE "P1Q_j_1763-1776_26"
    INDEX 01 00:44:57
  TRACK 27 AUDIO
    TITLE "P1Q_j_1763-1776_27"
    INDEX 01 00:45:64
  TRACK 28 AUDIO
    TITLE "P1Q_j_1763-1776_28"
    INDEX 01 00:46:08
  TRACK 29 AUDIO
    TITLE "P1Q_j_1763-1776_29"
    INDEX 01 00:50:59
  TRACK 30 AUDIO
    TITLE "P1Q_j_1763-1776_30"
    INDEX 01 00:51:02
  TRACK 31 AUDIO
    TITLE "P1Q_j_1763-1776_31"
    INDEX 01 00:55:35
  TRACK 32 AUDIO
    TITLE "P1Q_j_1763-1776_32"
    INDEX 01 00:56:07
  TRACK 33 AUDIO
    TITLE "P1Q_j_1763-1776_33"
    INDEX 01 00:57:32
  TRACK 34 AUDIO
    TITLE "P1Q_j_1763-1776_34"
    INDEX 01 00:57:53
  TRACK 35 AUDIO
    TITLE "P1Q_j_1763-1776_35"
    INDEX 01 01:00:69
  TRACK 36 AUDIO
    TITLE "P1Q_j_1763-1776_36"
    INDEX 01 01:01:16
  TRACK 37 AUDIO
    TITLE "P1Q_j_1763-1776_37"
    INDEX 01 01:05:43
  TRACK 38 AUDIO
    TITLE "P1Q_j_1763-1776_38"
    INDEX 01 01:06:13
  TRACK 39 AUDIO
    TITLE "P1Q_j_1763-1776_39"
    INDEX 01 01:07:48
  TRACK 40 AUDIO
    TITLE "P1Q_j_1763-1776_40"
    INDEX 01 01:07:67
  TRACK 41 AUDIO
    TITLE "P1Q_j_1763-1776_41"
    INDEX 01 01:12:06
  TRACK 42 AUDIO
    TITLE "P1Q_j_1763-1776_42"
    INDEX 01 01:12:25
  TRACK 43 AUDIO
    TITLE "P1Q_j_1763-1776_43"
    INDEX 01 01:16:37
  TRACK 44 AUDIO
    TITLE "P1Q_j_1763-1776_44"
    INDEX 01 01:17:07
  TRACK 45 AUDIO
    TITLE "P1Q_j_1763-1776_45"
    INDEX 01 01:18:40
  TRACK 46 AUDIO
    TITLE "P1Q_j_1763-1776_46"
    INDEX 01 01:18:59
  TRACK 47 AUDIO
    TITLE "P1Q_j_1763-1776_47"
    INDEX 01 01:22:59
  TRACK 48 AUDIO
    TITLE "P1Q_j_1763-1776_48"
    INDEX 01 01:23:06
  TRACK 49 AUDIO
    TITLE "P1Q_j_1763-1776_49"
    INDEX 01 01:27:39
  TRACK 50 AUDIO
    TITLE "P1Q_j_1763-1776_50"
    INDEX 01 01:28:11
  TRACK 51 AUDIO
    TITLE "P1Q_j_1763-1776_51"
    INDEX 01 01:29:40
  TRACK 52 AUDIO
    TITLE "P1Q_j_1763-1776_52"
    INDEX 01 01:29:61
  TRACK 53 AUDIO
    TITLE "P1Q_j_1763-1776_53"
    INDEX 01 01:34:17
  TRACK 54 AUDIO
    TITLE "P1Q_j_1763-1776_54"
    INDEX 01 01:34:33
  TRACK 55 AUDIO
    TITLE "P1Q_j_1763-1776_55"
    INDEX 01 01:38:21
  TRACK 56 AUDIO
    TITLE "P1Q_j_1763-1776_56"
    INDEX 01 01:38:68
  TRACK 57 AUDIO
    TITLE "P1Q_j_1763-1776_57"
    INDEX 01 01:40:43
  TRACK 58 AUDIO
    TITLE "P1Q_j_1763-1776_58"
    INDEX 01 01:40:63
  TRACK 59 AUDIO
    TITLE "P1Q_j_1763-1776_59"
    INDEX 01 01:43:48
  TRACK 60 AUDIO
    TITLE "P1Q_j_1763-1776_60"
    INDEX 01 01:43:69
  TRACK 61 AUDIO
    TITLE "P1Q_j_1763-1776_61"
    INDEX 01 01:49:17
  TRACK 62 AUDIO
    TITLE "P1Q_j_1763-1776_62"
    INDEX 01 01:49:62
  TRACK 63 AUDIO
    TITLE "P1Q_j_1763-1776_63"
    INDEX 01 01:51:33
  TRACK 64 AUDIO
    TITLE "P1Q_j_1763-1776_64"
    INDEX 01 01:51:53
  TRACK 65 AUDIO
    TITLE "P1Q_j_1763-1776_65"
    INDEX 01 01:55:68
  TRACK 66 AUDIO
    TITLE "P1Q_j_1763-1776_66"
    INDEX 01 01:56:13
  TRACK 67 AUDIO
    TITLE "P1Q_j_1763-1776_67"
    INDEX 01 02:00:32
  TRACK 68 AUDIO
    TITLE "P1Q_j_1763-1776_68"
    INDEX 01 02:01:02
  TRACK 69 AUDIO
    TITLE "P1Q_j_1763-1776_69"
    INDEX 01 02:03:23
  TRACK 70 AUDIO
    TITLE "P1Q_j_1763-1776_70"
    INDEX 01 02:03:42
  TRACK 71 AUDIO
    TITLE "P1Q_j_1763-1776_71"
    INDEX 01 02:07:21
  TRACK 72 AUDIO
    TITLE "P1Q_j_1763-1776_72"
    INDEX 01 02:07:38
  TRACK 73 AUDIO
    TITLE "P1Q_j_1763-1776_73"
    INDEX 01 02:11:34
  TRACK 74 AUDIO
    TITLE "P1Q_j_1763-1776_74"
    INDEX 01 02:12:02
  TRACK 75 AUDIO
    TITLE "P1Q_j_1763-1776_75"
    INDEX 01 02:14:09
  TRACK 76 AUDIO
    TITLE "P1Q_j_1763-1776_76"
    INDEX 01 02:14:31
  TRACK 77 AUDIO
    TITLE "P1Q_j_1763-1776_77"
    INDEX 01 02:17:60
  TRACK 78 AUDIO
    TITLE "P1Q_j_1763-1776_78"
    INDEX 01 02:18:05
  TRACK 79 AUDIO
    TITLE "P1Q_j_1763-1776_79"
    INDEX 01 02:23:63
  TRACK 80 AUDIO
    TITLE "P1Q_j_1763-1776_80"
    INDEX 01 02:24:33
  TRACK 81 AUDIO
    TITLE "P1Q_j_1763-1776_81"
    INDEX 01 02:26:06
  TRACK 82 AUDIO
    TITLE "P1Q_j_1763-1776_82"
    INDEX 01 02:26:30
  TRACK 83 AUDIO
    TITLE "P1Q_j_1763-1776_83"
    INDEX 01 02:29:38
  TRACK 84 AUDIO
    TITLE "P1Q_j_1763-1776_84"
    INDEX 01 02:29:57
  TRACK 85 AUDIO
    TITLE "P1Q_j_1763-1776_85"
    INDEX 01 02:36:03
